<svg width="39" height="38" viewBox="0 0 39 38" fill="none" xmlns="http://www.w3.org/2000/svg">
<path d="M38.1524 19C38.1524 29.2151 29.8325 37.5 19.5645 37.5C9.29647 37.5 0.976562 29.2151 0.976562 19C0.976562 8.78491 9.29647 0.5 19.5645 0.5C29.8325 0.5 38.1524 8.78491 38.1524 19Z" stroke="white"/>
<g clip-path="url(#clip0_342_12623)">
<path d="M29.6082 12.7988C28.861 13.125 28.0648 13.3412 27.2347 13.4462C28.0887 12.9388 28.7404 12.1412 29.0468 11.18C28.2507 11.6525 27.3716 11.9863 26.4348 12.1725C25.6788 11.3713 24.6013 10.875 23.4259 10.875C21.1454 10.875 19.3095 12.7175 19.3095 14.9763C19.3095 15.3012 19.3371 15.6137 19.4049 15.9112C15.9804 15.745 12.9502 14.1113 10.9146 11.6225C10.5592 12.2363 10.3507 12.9388 10.3507 13.695C10.3507 15.115 11.0854 16.3737 12.1804 17.1025C11.5186 17.09 10.8694 16.8988 10.3193 16.5975C10.3193 16.61 10.3193 16.6262 10.3193 16.6425C10.3193 18.635 11.7472 20.29 13.6195 20.6712C13.2842 20.7625 12.9188 20.8062 12.5396 20.8062C12.2758 20.8062 12.0096 20.7913 11.7597 20.7362C12.2934 22.36 13.8079 23.5538 15.6087 23.5925C14.2072 24.6838 12.4278 25.3412 10.5014 25.3412C10.1636 25.3412 9.83962 25.3263 9.51562 25.285C11.3403 26.4563 13.5027 27.125 15.8347 27.125C23.4146 27.125 27.5587 20.875 27.5587 15.4575C27.5587 15.2762 27.5524 15.1013 27.5436 14.9275C28.3612 14.35 29.0481 13.6288 29.6082 12.7988Z" fill="white"/>
</g>
<defs>
<clipPath id="clip0_342_12623">
<rect width="20.0925" height="20" fill="white" transform="translate(9.51562 9)"/>
</clipPath>
</defs>
</svg>
